<mxfile host="65bd71144e">
    <diagram id="tPpMO-V5ERQaaPvs2pQP" name="Page-1">
        <mxGraphModel dx="788" dy="420" grid="1" gridSize="10" guides="1" tooltips="1" connect="1" arrows="1" fold="1" page="1" pageScale="1" pageWidth="10000" pageHeight="10000" math="0" shadow="0">
            <root>
                <mxCell id="0"/>
                <mxCell id="1" parent="0"/>
                <mxCell id="2" value="User" style="shape=umlActor;verticalLabelPosition=bottom;verticalAlign=top;html=1;" vertex="1" parent="1">
                    <mxGeometry x="220" y="230" width="30" height="60" as="geometry"/>
                </mxCell>
                <mxCell id="3" value="Booking page" style="shape=umlLifeline;perimeter=lifelinePerimeter;whiteSpace=wrap;html=1;container=1;dropTarget=0;collapsible=0;recursiveResize=0;outlineConnect=0;portConstraint=eastwest;newEdgeStyle={&quot;curved&quot;:0,&quot;rounded&quot;:0};" vertex="1" parent="1">
                    <mxGeometry x="430" y="230" width="100" height="570" as="geometry"/>
                </mxCell>
                <mxCell id="4" value="" style="endArrow=none;dashed=1;html=1;" edge="1" parent="1">
                    <mxGeometry width="50" height="50" relative="1" as="geometry">
                        <mxPoint x="235" y="800" as="sourcePoint"/>
                        <mxPoint x="234.67" y="310" as="targetPoint"/>
                    </mxGeometry>
                </mxCell>
                <mxCell id="5" value="Reservation Service" style="shape=umlLifeline;perimeter=lifelinePerimeter;whiteSpace=wrap;html=1;container=1;dropTarget=0;collapsible=0;recursiveResize=0;outlineConnect=0;portConstraint=eastwest;newEdgeStyle={&quot;curved&quot;:0,&quot;rounded&quot;:0};" vertex="1" parent="1">
                    <mxGeometry x="710" y="230" width="100" height="570" as="geometry"/>
                </mxCell>
                <mxCell id="33" value="" style="html=1;points=[[0,0,0,0,5],[0,1,0,0,-5],[1,0,0,0,5],[1,1,0,0,-5]];perimeter=orthogonalPerimeter;outlineConnect=0;targetShapes=umlLifeline;portConstraint=eastwest;newEdgeStyle={&quot;curved&quot;:0,&quot;rounded&quot;:0};" vertex="1" parent="5">
                    <mxGeometry x="50" y="370" width="10" height="40" as="geometry"/>
                </mxCell>
                <mxCell id="34" value="Checking whether the payment was successful or failed" style="html=1;align=left;spacingLeft=2;endArrow=block;rounded=0;edgeStyle=orthogonalEdgeStyle;curved=0;rounded=0;" edge="1" parent="5" target="33">
                    <mxGeometry relative="1" as="geometry">
                        <mxPoint x="55" y="350" as="sourcePoint"/>
                        <Array as="points">
                            <mxPoint x="75" y="380"/>
                        </Array>
                    </mxGeometry>
                </mxCell>
                <mxCell id="6" value="Database" style="shape=umlLifeline;perimeter=lifelinePerimeter;whiteSpace=wrap;html=1;container=1;dropTarget=0;collapsible=0;recursiveResize=0;outlineConnect=0;portConstraint=eastwest;newEdgeStyle={&quot;curved&quot;:0,&quot;rounded&quot;:0};" vertex="1" parent="1">
                    <mxGeometry x="1090" y="230" width="100" height="570" as="geometry"/>
                </mxCell>
                <mxCell id="7" value="" style="endArrow=classic;html=1;" edge="1" parent="1" target="3">
                    <mxGeometry width="50" height="50" relative="1" as="geometry">
                        <mxPoint x="240" y="340" as="sourcePoint"/>
                        <mxPoint x="500" y="370" as="targetPoint"/>
                    </mxGeometry>
                </mxCell>
                <mxCell id="8" value="Search for tickets" style="text;html=1;align=center;verticalAlign=middle;whiteSpace=wrap;rounded=0;" vertex="1" parent="1">
                    <mxGeometry x="260" y="310" width="180" height="30" as="geometry"/>
                </mxCell>
                <mxCell id="9" value="Fetch available tickets" style="text;html=1;align=center;verticalAlign=middle;whiteSpace=wrap;rounded=0;" vertex="1" parent="1">
                    <mxGeometry x="520" y="330" width="180" height="30" as="geometry"/>
                </mxCell>
                <mxCell id="10" value="" style="endArrow=classic;html=1;" edge="1" parent="1" target="6">
                    <mxGeometry width="50" height="50" relative="1" as="geometry">
                        <mxPoint x="480" y="360" as="sourcePoint"/>
                        <mxPoint x="720" y="360" as="targetPoint"/>
                    </mxGeometry>
                </mxCell>
                <mxCell id="15" value="" style="endArrow=classic;html=1;" edge="1" parent="1">
                    <mxGeometry width="50" height="50" relative="1" as="geometry">
                        <mxPoint x="480.14571428571423" y="480" as="sourcePoint"/>
                        <mxPoint x="759.8600000000002" y="480" as="targetPoint"/>
                        <Array as="points">
                            <mxPoint x="740.36" y="480"/>
                        </Array>
                    </mxGeometry>
                </mxCell>
                <mxCell id="16" value="Send booking request" style="text;html=1;align=center;verticalAlign=middle;whiteSpace=wrap;rounded=0;" vertex="1" parent="1">
                    <mxGeometry x="550" y="450" width="180" height="30" as="geometry"/>
                </mxCell>
                <mxCell id="19" value="Payment Gateway" style="shape=umlLifeline;perimeter=lifelinePerimeter;whiteSpace=wrap;html=1;container=1;dropTarget=0;collapsible=0;recursiveResize=0;outlineConnect=0;portConstraint=eastwest;newEdgeStyle={&quot;curved&quot;:0,&quot;rounded&quot;:0};" vertex="1" parent="1">
                    <mxGeometry x="900" y="230" width="110" height="570" as="geometry"/>
                </mxCell>
                <mxCell id="20" value="" style="endArrow=classic;html=1;" edge="1" parent="1" source="6">
                    <mxGeometry width="50" height="50" relative="1" as="geometry">
                        <mxPoint x="1129.87" y="399.9999999999999" as="sourcePoint"/>
                        <mxPoint x="480" y="400" as="targetPoint"/>
                    </mxGeometry>
                </mxCell>
                <mxCell id="21" value="Return ticket list" style="text;html=1;align=center;verticalAlign=middle;whiteSpace=wrap;rounded=0;" vertex="1" parent="1">
                    <mxGeometry x="530" y="370" width="180" height="30" as="geometry"/>
                </mxCell>
                <mxCell id="22" value="Select ticket and enter passenger details" style="text;html=1;align=center;verticalAlign=middle;whiteSpace=wrap;rounded=0;" vertex="1" parent="1">
                    <mxGeometry x="240" y="400" width="220" height="30" as="geometry"/>
                </mxCell>
                <mxCell id="23" value="" style="endArrow=classic;html=1;" edge="1" parent="1">
                    <mxGeometry width="50" height="50" relative="1" as="geometry">
                        <mxPoint x="240" y="430" as="sourcePoint"/>
                        <mxPoint x="480" y="430" as="targetPoint"/>
                    </mxGeometry>
                </mxCell>
                <mxCell id="24" value="" style="endArrow=classic;html=1;" edge="1" parent="1" source="5" target="19">
                    <mxGeometry width="50" height="50" relative="1" as="geometry">
                        <mxPoint x="635.4957142857143" y="510" as="sourcePoint"/>
                        <mxPoint x="1010.0000000000002" y="510" as="targetPoint"/>
                        <Array as="points">
                            <mxPoint x="915.9200000000001" y="510"/>
                            <mxPoint x="885.5" y="510"/>
                        </Array>
                    </mxGeometry>
                </mxCell>
                <mxCell id="25" value="Initiate payment" style="text;html=1;align=center;verticalAlign=middle;whiteSpace=wrap;rounded=0;" vertex="1" parent="1">
                    <mxGeometry x="770" y="480" width="180" height="30" as="geometry"/>
                </mxCell>
                <mxCell id="29" value="Send payment result" style="text;html=1;align=center;verticalAlign=middle;whiteSpace=wrap;rounded=0;" vertex="1" parent="1">
                    <mxGeometry x="770" y="540" width="180" height="10" as="geometry"/>
                </mxCell>
                <mxCell id="30" value="" style="endArrow=classic;html=1;" edge="1" parent="1" source="19" target="5">
                    <mxGeometry width="50" height="50" relative="1" as="geometry">
                        <mxPoint x="944.5" y="560" as="sourcePoint"/>
                        <mxPoint x="770" y="560" as="targetPoint"/>
                        <Array as="points">
                            <mxPoint x="915.9200000000001" y="560"/>
                            <mxPoint x="885.5" y="560"/>
                        </Array>
                    </mxGeometry>
                </mxCell>
                <mxCell id="31" value="" style="endArrow=classic;html=1;" edge="1" parent="1">
                    <mxGeometry width="50" height="50" relative="1" as="geometry">
                        <mxPoint x="759.9285714285713" y="682.8000000000001" as="sourcePoint"/>
                        <mxPoint x="1139.5" y="682.8000000000001" as="targetPoint"/>
                        <Array as="points">
                            <mxPoint x="1030.21" y="682.8000000000001"/>
                        </Array>
                    </mxGeometry>
                </mxCell>
                <mxCell id="32" value="True : Save reservation" style="text;html=1;align=center;verticalAlign=middle;whiteSpace=wrap;rounded=0;" vertex="1" parent="1">
                    <mxGeometry x="790" y="662.8" width="160" height="16.4" as="geometry"/>
                </mxCell>
                <mxCell id="35" value="" style="endArrow=classic;html=1;" edge="1" parent="1">
                    <mxGeometry width="50" height="50" relative="1" as="geometry">
                        <mxPoint x="760" y="664.1" as="sourcePoint"/>
                        <mxPoint x="240" y="664.1" as="targetPoint"/>
                        <Array as="points">
                            <mxPoint x="670.5" y="664.1"/>
                        </Array>
                    </mxGeometry>
                </mxCell>
                <mxCell id="36" value="False : Send payment error message" style="text;html=1;align=center;verticalAlign=middle;whiteSpace=wrap;rounded=0;" vertex="1" parent="1">
                    <mxGeometry x="510" y="646.4" width="200" height="16.4" as="geometry"/>
                </mxCell>
                <mxCell id="37" value="" style="endArrow=classic;html=1;" edge="1" parent="1">
                    <mxGeometry width="50" height="50" relative="1" as="geometry">
                        <mxPoint x="760" y="754.5" as="sourcePoint"/>
                        <mxPoint x="480" y="754.5" as="targetPoint"/>
                        <Array as="points">
                            <mxPoint x="706.4200000000001" y="754.5"/>
                            <mxPoint x="676" y="754.5"/>
                        </Array>
                    </mxGeometry>
                </mxCell>
                <mxCell id="38" value="Send booking confirmation" style="text;html=1;align=center;verticalAlign=middle;whiteSpace=wrap;rounded=0;" vertex="1" parent="1">
                    <mxGeometry x="560" y="740" width="180" height="10" as="geometry"/>
                </mxCell>
                <mxCell id="39" value="" style="endArrow=classic;html=1;" edge="1" parent="1">
                    <mxGeometry width="50" height="50" relative="1" as="geometry">
                        <mxPoint x="479.5" y="790" as="sourcePoint"/>
                        <mxPoint x="240" y="791" as="targetPoint"/>
                        <Array as="points">
                            <mxPoint x="458.46" y="790"/>
                        </Array>
                    </mxGeometry>
                </mxCell>
                <mxCell id="40" value="Show booking result" style="text;html=1;align=center;verticalAlign=middle;whiteSpace=wrap;rounded=0;" vertex="1" parent="1">
                    <mxGeometry x="270" y="770" width="180" height="10" as="geometry"/>
                </mxCell>
                <mxCell id="44" value="" style="endArrow=classic;html=1;" edge="1" parent="1">
                    <mxGeometry width="50" height="50" relative="1" as="geometry">
                        <mxPoint x="1139.5" y="730" as="sourcePoint"/>
                        <mxPoint x="759.6666666666665" y="730" as="targetPoint"/>
                        <Array as="points">
                            <mxPoint x="890.4200000000001" y="730"/>
                            <mxPoint x="860" y="730"/>
                        </Array>
                    </mxGeometry>
                </mxCell>
                <mxCell id="47" value="&lt;span style=&quot;color: rgb(0, 0, 0);&quot;&gt;Return&amp;nbsp;&lt;span style=&quot;color: rgb(0, 0, 0);&quot;&gt;reservation&amp;nbsp;&lt;/span&gt;result&lt;/span&gt;" style="text;html=1;align=center;verticalAlign=middle;whiteSpace=wrap;rounded=0;" vertex="1" parent="1">
                    <mxGeometry x="790" y="710" width="160" height="16.4" as="geometry"/>
                </mxCell>
            </root>
        </mxGraphModel>
    </diagram>
</mxfile>